
<xml version="1.0" encoding="utf-8">
<svg version="1.1" id="Layer_1" 
	 xmlns="http://www.w3.org/2000/svg" xmlns:xlink="http://www.w3.org/1999/xlink" xmlns:a="http://ns.adobe.com/AdobeSVGViewerExtensions/3.0/"
	 x="0px" y="0px" width="864px" height="864px" viewBox="0 0 864 864" enable-background="new 0 0 864 864" xml:space="preserve">
<path fill="none" stroke="#bf988f" stroke-width="20" stroke-miterlimit="10" d="M376.409,452.153
	c44.484,19.438,93.631-3.97,103.227-49.184c8.307-39.134-11.684-78.071-46.677-86.177c-37.962-8.793-76.489,3.381-89.938,45.73
	c-1.237,3.895-6.312,8.417-10.34,9.295c-35.015,7.651-62.216,37.213-66.563,73.422c-4.436,36.938,13.674,72.728,46.911,87.118
	c15.876,6.874,33.708,9.414,50.825,13.134c6.717,1.458,10.627,3.82,14.585,10.113c5.106,8.125,12.669,15.982,21.031,20.562
	c36.533,20.004,81.258,13.479,109.036-14.589c28.281-28.575,33.834-73.306,13.7-110.302c-1.888-3.474-3.732-6.97-6.136-11.456
	c1.224-0.697,2.153-1.564,3.225-1.791c48.349-10.294,62.196-62.221,54.362-98.742c-12.698-59.183-65.274-89.871-123.208-72.25
	c-2.216,0.674-4.413,1.399-7.663,2.433c-7.379-27.313-22.332-48.301-48.136-60.111c-21.457-9.819-43.953-12.559-67.049-7.591
	c-29.064,6.251-51.333,21.736-64.772,48.962c-12.653,25.631-14.064,53.116-13.125,82.362c-33.438-1.33-60.25,10.976-80.116,36.896
	c-17.127,22.347-26.264,48.147-25.988,76.113c0.55,56.003,31.084,88.116,96.392,102.58c-21.042,67.596-6.966,122.509,62.719,151.229
	c47.882,19.737,83.909,2.639,132.749-56.769c42.549,56.123,95.641,74.068,157.921,35.912
	c55.071-33.737,64.099-84.565,40.679-143.801c29.173-3.136,54.812-11.338,73.104-34.138c14.33-17.861,22.415-39.092,21.729-61.337
	c-2.22-71.828-37.295-114.809-115.206-119.503c22.326-24.559,37.044-49.248,35.45-79.966c-1.453-28.015-14.161-51.478-33.43-71.535
	c-14.458-15.048-31.659-25.771-51.343-32.556c-20.276-6.99-41.438-9.816-61.27-1.514c-18.51,7.748-35.357,19.458-54.436,30.271
	c-20.949-47.611-51.155-89-108.757-99.245c-32.462-5.774-64.097-1.267-93.82,13.256c-39.309,19.205-69.358,47.586-84.981,89.375
	c-15.693,41.977-6.86,81.832,12.983,120.611c-15.561,2.442-29.473,3.664-42.903,6.9C77.373,308.84,39.577,352.075,32.19,407.43
	c-5.484,41.085,0.24,79.928,21.426,115.997c24.299,41.368,61.686,61.564,108.254,66.882c3.135,0.357,6.291,0.539,11.247,0.959
	c-41.412,93.891-12.847,161.716,76.384,205.771c21.402,10.568,44.924,14.153,69.061,13.479c24.624-0.688,48.445-5.679,68.462-19.588
	c19.148-13.304,35.804-30.196,54.42-46.257c23.92,35.954,57.161,63.407,104.991,67.128c35.188,2.741,67.377-7.194,97.191-25.792
	c33.979-21.188,58.56-50.062,70.779-88.3c12.233-38.281,5.4-75.247-12.596-112.017c11.926-1.428,22.289-2.015,32.386-3.983
	c48.809-9.523,81.57-38.547,97.532-85.039c19.965-58.142,13.786-113.311-25.576-162.208c-23.044-28.626-55.198-40.136-90.854-43.32
	c-3.559-0.318-7.135-0.462-12.828-0.821c36.04-82.335,18.548-151.48-56.346-199.054C574.5,38.5,506.5,23.5,404.865,98.244"/>
</svg>

